M48
; DRILL file {KiCad 9.0.6} date 2025-12-12T18:47:45+0700
; FORMAT={-:-/ absolute / metric / decimal}
; #@! TF.CreationDate,2025-12-12T18:47:45+07:00
; #@! TF.GenerationSoftware,Kicad,Pcbnew,9.0.6
; #@! TF.FileFunction,MixedPlating,1,2
FMAT,2
METRIC
; #@! TA.AperFunction,Plated,PTH,ComponentDrill
T1C0.700
; #@! TA.AperFunction,Plated,PTH,ComponentDrill
T2C0.750
; #@! TA.AperFunction,Plated,PTH,ComponentDrill
T3C0.800
; #@! TA.AperFunction,Plated,PTH,ComponentDrill
T4C0.900
; #@! TA.AperFunction,Plated,PTH,ComponentDrill
T5C1.000
; #@! TA.AperFunction,Plated,PTH,ComponentDrill
T6C1.100
; #@! TA.AperFunction,NonPlated,NPTH,ComponentDrill
T7C1.100
%
G90
G05
T1
X51.46Y-132.0
X51.46Y-142.0
X56.54Y-132.0
X56.54Y-142.0
X58.92Y-104.5
X58.92Y-113.0
X58.92Y-121.5
X61.96Y-132.0
X61.96Y-142.0
X64.0Y-104.5
X64.0Y-113.0
X64.0Y-121.5
X67.04Y-132.0
X67.04Y-142.0
X72.46Y-104.5
X72.46Y-115.5
X72.46Y-132.0
X72.46Y-142.0
X72.5Y-118.46
X72.5Y-123.54
X77.54Y-104.5
X77.54Y-115.5
X77.54Y-132.0
X77.54Y-142.0
X81.46Y-104.5
X81.46Y-115.5
X82.46Y-132.0
X82.46Y-142.0
X86.54Y-104.5
X86.54Y-115.5
X87.54Y-132.0
X87.54Y-142.0
X90.96Y-104.5
X90.96Y-115.5
X92.82Y-137.5
X92.82Y-142.58
X96.0Y-118.46
X96.0Y-123.54
X96.04Y-104.5
X96.04Y-115.5
X97.547Y-137.5
X97.547Y-142.58
X101.955Y-104.23
X101.955Y-109.31
X101.955Y-113.23
X101.955Y-118.31
X101.955Y-122.19
X101.955Y-127.27
X102.273Y-137.5
X102.273Y-142.58
X107.0Y-137.5
X107.0Y-142.58
X110.96Y-131.0
X111.0Y-137.5
X111.0Y-142.58
X112.955Y-104.23
X112.955Y-109.31
X112.955Y-113.23
X112.955Y-118.31
X112.955Y-122.23
X112.955Y-127.31
X115.915Y-104.27
X115.915Y-127.27
X116.04Y-131.0
X120.995Y-104.27
X120.995Y-127.27
T2
X52.5Y-135.73
X52.5Y-137.0
X52.5Y-138.27
X58.79Y-135.73
X58.79Y-137.0
X58.79Y-138.27
X65.14Y-135.73
X65.14Y-137.0
X65.14Y-138.27
X73.73Y-110.36
X74.36Y-135.73
X74.36Y-137.0
X74.36Y-138.27
X75.0Y-110.36
X76.27Y-110.36
X78.23Y-121.5
X79.5Y-121.5
X80.43Y-135.73
X80.43Y-137.0
X80.43Y-138.27
X80.77Y-121.5
X82.73Y-110.36
X84.0Y-110.36
X85.27Y-110.36
X86.5Y-135.73
X86.5Y-137.0
X86.5Y-138.27
X87.46Y-121.5
X88.73Y-121.5
X90.0Y-121.5
X92.23Y-110.36
X93.5Y-110.36
X94.5Y-131.5
X94.5Y-132.77
X94.5Y-134.04
X94.77Y-110.36
X100.29Y-131.5
X100.29Y-132.77
X100.29Y-134.04
X106.08Y-131.5
X106.08Y-132.77
X106.08Y-134.04
X107.815Y-105.5
X107.815Y-106.77
X107.815Y-108.04
X107.815Y-114.5
X107.815Y-115.77
X107.815Y-117.04
X107.815Y-123.5
X107.815Y-124.77
X107.815Y-126.04
X118.815Y-110.0
X118.815Y-111.27
X118.815Y-112.54
X118.815Y-119.0
X118.815Y-120.27
X118.815Y-121.54
T3
X51.96Y-108.5
X51.96Y-117.0
X51.96Y-125.5
X53.96Y-108.5
X53.96Y-117.0
X53.96Y-125.5
X55.96Y-108.5
X55.96Y-117.0
X55.96Y-125.5
T4
X64.19Y-108.5
X64.19Y-117.0
X64.19Y-125.5
X66.73Y-108.5
X66.73Y-117.0
X66.73Y-125.5
X113.46Y-134.89
X113.46Y-140.61
X116.0Y-134.89
X116.0Y-140.61
T5
X46.46Y-108.5
X46.46Y-116.945
X46.46Y-125.39
X119.73Y-135.0
X119.73Y-140.61
T6
X45.4Y-137.96
X45.4Y-140.5
T7
X42.86Y-137.96
X42.86Y-140.5
T1
G00X49.76Y-108.1
M15
G01X49.76Y-108.9
M16
G05
G00X49.76Y-116.6
M15
G01X49.76Y-117.4
M16
G05
G00X49.76Y-125.1
M15
G01X49.76Y-125.9
M16
G05
G00X58.16Y-108.1
M15
G01X58.16Y-108.9
M16
G05
G00X58.16Y-116.6
M15
G01X58.16Y-117.4
M16
G05
G00X58.16Y-125.1
M15
G01X58.16Y-125.9
M16
G05
M30
